<?xml version="1.0" standalone="no"?>
<!DOCTYPE svg PUBLIC "-//W3C//DTD SVG 20010904//EN"
 "http://www.w3.org/TR/2001/REC-SVG-20010904/DTD/svg10.dtd">
<svg version="1.0" xmlns="http://www.w3.org/2000/svg"
 width="512.000000pt" height="512.000000pt" viewBox="0 0 512.000000 512.000000"
 preserveAspectRatio="xMidYMid meet">

<g transform="translate(0.000000,512.000000) scale(0.100000,-0.100000)"
fill="#000000" stroke="none">
<path d="M3540 5104 c-30 -8 -75 -26 -100 -41 -28 -16 -466 -447 -1172 -1152
-919 -919 -1131 -1136 -1153 -1179 -49 -99 -49 -242 -1 -348 24 -53 135 -167
1154 -1186 815 -815 1139 -1132 1172 -1149 171 -85 369 -53 493 80 114 121
138 269 71 423 -26 59 -89 125 -998 1036 l-971 972 976 978 c1062 1063 1012
1007 1028 1137 24 187 -114 380 -308 431 -68 17 -120 17 -191 -2z"/>
</g>
</svg>
